<svg xmlns="http://www.w3.org/2000/svg" width="256" height="256" viewBox="0 0 256 256" role="img" aria-label="HIT crest logo">
  <defs>
    <linearGradient id="g1" x1="0" y1="0" x2="1" y2="1">
      <stop offset="0" stop-color="#003670"/>
      <stop offset="1" stop-color="#00A8E8"/>
    </linearGradient>
    <linearGradient id="glow" x1="0" y1="0" x2="0" y2="1">
      <stop offset="0" stop-color="#00E1FF" stop-opacity=".8"/>
      <stop offset="1" stop-color="#0053B8" stop-opacity=".3"/>
    </linearGradient>
    <filter id="shadow" x="-20%" y="-20%" width="140%" height="140%">
      <feDropShadow dx="0" dy="6" stdDeviation="8" flood-color="#001021" flood-opacity=".6"/>
    </filter>
  </defs>

  <!-- Shield base -->
  <path filter="url(#shadow)" d="M128 16c25 22 53 30 88 30v76c0 52-38 96-88 118-50-22-88-66-88-118V46c35 0 63-8 88-30z" fill="url(#g1)" stroke="#FFC300" stroke-width="4"/>

  <!-- Inner ring -->
  <path d="M128 34c22 18 46 24 76 24v64c0 45-32 83-76 102-44-19-76-57-76-102V58c30 0 54-6 76-24z" fill="none" stroke="#8bd3ff" stroke-opacity=".35" stroke-width="3"/>

  <!-- Laurel leaves -->
  <g fill="none" stroke="#FFC300" stroke-width="3" stroke-linecap="round">
    <path d="M86 168c-14-10-22-22-26-36 12 2 22 7 30 14"/>
    <path d="M170 168c14-10 22-22 26-36-12 2-22 7-30 14"/>
  </g>

  <!-- Letters HIT -->
  <g fill="#ffffff">
    <path d="M86 92h12v20h16V92h12v52h-12v-22H98v22H86V92z"/>
    <path d="M138 92h12v52h-12V92z"/>
    <path d="M158 92h36v10h-12v42h-12v-42h-12V92z"/>
  </g>

  <!-- Circuit motif -->
  <g stroke="url(#glow)" stroke-width="2" stroke-linecap="round" opacity=".6">
    <path d="M64 120h20m-10-10v20"/>
    <circle cx="74" cy="110" r="3" fill="#00E1FF"/>
    <path d="M192 120h-20m10-10v20"/>
    <circle cx="182" cy="110" r="3" fill="#00E1FF"/>
  </g>

  <!-- Stars -->
  <g fill="#FFC300">
    <circle cx="128" cy="58" r="3"/>
    <circle cx="114" cy="60" r="2.5"/>
    <circle cx="142" cy="60" r="2.5"/>
  </g>
</svg>
